<?xml version="1.0" encoding="UTF-8" standalone="no"?><!DOCTYPE svg PUBLIC "-//W3C//DTD SVG 1.1//EN" "http://www.w3.org/Graphics/SVG/1.1/DTD/svg11.dtd"><!-- Generated by graphviz version 2.40.1 (20161225.0304)
 --><!-- Title: DependencyTree Pages: 1 --><svg xmlns="http://www.w3.org/2000/svg" xmlns:xlink="http://www.w3.org/1999/xlink" width="309pt" height="122pt" viewBox="0.00 0.00 309.16 122.00">
<g id="graph0" class="graph" transform="scale(.0708 .0708) rotate(0) translate(4 1719.871)">
<title>DependencyTree</title>
<polygon fill="#ffffff" stroke="transparent" points="-4,4 -4,-1719.871 4364.3911,-1719.871 4364.3911,4 -4,4"/>
<!-- /system/lib64/libtrustzone_storage.so -->
<g id="node1" class="node">
<title>/system/lib64/libtrustzone_storage.so</title>
<ellipse fill="none" stroke="#000000" cx="155.066" cy="-1239" rx="155.132" ry="18"/>
<text text-anchor="middle" x="155.066" y="-1234.8" font-family="Times,serif" font-size="14.00" fill="#000000">/system/lib64/libtrustzone_storage.so</text>
</g>
<!-- /vendor/lib64/libteec.so -->
<g id="node2" class="node">
<title>/vendor/lib64/libteec.so</title>
<ellipse fill="none" stroke="#000000" cx="2047.066" cy="-95" rx="102.4871" ry="18"/>
<text text-anchor="middle" x="2047.066" y="-90.8" font-family="Times,serif" font-size="14.00" fill="#000000">/vendor/lib64/libteec.so</text>
</g>
<!-- /system/lib64/libtrustzone_storage.so&#45;&gt;/vendor/lib64/libteec.so -->
<g id="edge1" class="edge">
<title>/system/lib64/libtrustzone_storage.so-&gt;/vendor/lib64/libteec.so</title>
<path fill="none" stroke="#000000" d="M160.5675,-1220.7732C190.513,-1124.7927 343.3597,-674.2533 635.066,-459 852.2675,-298.7246 1687.4561,-152.8815 1960.2903,-108.6489"/>
<polygon fill="#000000" stroke="#000000" points="1961.2202,-112.0441 1970.5336,-106.9932 1960.1032,-105.1338 1961.2202,-112.0441"/>
</g>
<!-- /system/lib64/libhwsign.so -->
<g id="node3" class="node">
<title>/system/lib64/libhwsign.so</title>
<ellipse fill="none" stroke="#000000" cx="1486.066" cy="-858" rx="114.7052" ry="18"/>
<text text-anchor="middle" x="1486.066" y="-853.8" font-family="Times,serif" font-size="14.00" fill="#000000">/system/lib64/libhwsign.so</text>
</g>
<!-- /system/lib64/libhwsign.so&#45;&gt;/vendor/lib64/libteec.so -->
<g id="edge2" class="edge">
<title>/system/lib64/libhwsign.so-&gt;/vendor/lib64/libteec.so</title>
<path fill="none" stroke="#000000" d="M1478.0548,-839.785C1453.2435,-780.4036 1383.5747,-588.7853 1456.066,-459 1570.0336,-254.9572 1850.5309,-151.1585 1979.8162,-112.8267"/>
<polygon fill="#000000" stroke="#000000" points="1980.9915,-116.1296 1989.6071,-109.9635 1979.0267,-109.411 1980.9915,-116.1296"/>
</g>
<!-- /vendor/lib64/libtrustzone_key_manager.so -->
<g id="node13" class="node">
<title>/vendor/lib64/libtrustzone_key_manager.so</title>
<ellipse fill="none" stroke="#000000" cx="1240.066" cy="-477" rx="179.3821" ry="18"/>
<text text-anchor="middle" x="1240.066" y="-472.8" font-family="Times,serif" font-size="14.00" fill="#000000">/vendor/lib64/libtrustzone_key_manager.so</text>
</g>
<!-- /system/lib64/libhwsign.so&#45;&gt;/vendor/lib64/libtrustzone_key_manager.so -->
<g id="edge30" class="edge">
<title>/system/lib64/libhwsign.so-&gt;/vendor/lib64/libtrustzone_key_manager.so</title>
<path fill="none" stroke="#000000" d="M1474.3664,-839.8799C1434.6258,-778.3305 1304.6715,-577.0598 1257.4312,-503.8948"/>
<polygon fill="#000000" stroke="#000000" points="1260.2019,-501.7336 1251.8372,-495.231 1254.3212,-505.5306 1260.2019,-501.7336"/>
</g>
<!-- /system/lib64/libtrustzone_signature.so -->
<g id="node4" class="node">
<title>/system/lib64/libtrustzone_signature.so</title>
<ellipse fill="none" stroke="#000000" cx="1195.066" cy="-858" rx="162.6563" ry="18"/>
<text text-anchor="middle" x="1195.066" y="-853.8" font-family="Times,serif" font-size="14.00" fill="#000000">/system/lib64/libtrustzone_signature.so</text>
</g>
<!-- /system/lib64/libtrustzone_signature.so&#45;&gt;/vendor/lib64/libteec.so -->
<g id="edge3" class="edge">
<title>/system/lib64/libtrustzone_signature.so-&gt;/vendor/lib64/libteec.so</title>
<path fill="none" stroke="#000000" d="M1177.6556,-839.713C1123.0538,-780.1108 964.0339,-587.8931 1054.066,-459 1164.23,-301.2854 1759.3786,-157.8766 1971.7308,-111.0261"/>
<polygon fill="#000000" stroke="#000000" points="1972.5342,-114.4332 1981.55,-108.8685 1971.0319,-107.5963 1972.5342,-114.4332"/>
</g>
<!-- /system/lib64/libtrustzone_signature.so&#45;&gt;/vendor/lib64/libtrustzone_key_manager.so -->
<g id="edge31" class="edge">
<title>/system/lib64/libtrustzone_signature.so-&gt;/vendor/lib64/libtrustzone_key_manager.so</title>
<path fill="none" stroke="#000000" d="M1197.2061,-839.8799C1204.4313,-778.7066 1227.958,-579.5141 1236.7293,-505.2502"/>
<polygon fill="#000000" stroke="#000000" points="1240.2155,-505.5726 1237.9127,-495.231 1233.2638,-504.7515 1240.2155,-505.5726"/>
</g>
<!-- /system/lib64/liboperta.so -->
<g id="node5" class="node">
<title>/system/lib64/liboperta.so</title>
<ellipse fill="none" stroke="#000000" cx="1574.066" cy="-477" rx="111.1708" ry="18"/>
<text text-anchor="middle" x="1574.066" y="-472.8" font-family="Times,serif" font-size="14.00" fill="#000000">/system/lib64/liboperta.so</text>
</g>
<!-- /system/lib64/liboperta.so&#45;&gt;/vendor/lib64/libteec.so -->
<g id="edge4" class="edge">
<title>/system/lib64/liboperta.so-&gt;/vendor/lib64/libteec.so</title>
<path fill="none" stroke="#000000" d="M1595.9311,-459.3415C1672.5839,-397.4358 1929.2257,-190.1691 2017.1867,-119.1308"/>
<polygon fill="#000000" stroke="#000000" points="2019.5801,-121.6968 2025.1608,-112.6909 2015.1819,-116.251 2019.5801,-121.6968"/>
</g>
<!-- /vendor/bin/tlogcat -->
<g id="node6" class="node">
<title>/vendor/bin/tlogcat</title>
<ellipse fill="none" stroke="#000000" cx="1784.066" cy="-477" rx="84.5498" ry="18"/>
<text text-anchor="middle" x="1784.066" y="-472.8" font-family="Times,serif" font-size="14.00" fill="#000000">/vendor/bin/tlogcat</text>
</g>
<!-- /vendor/bin/tlogcat&#45;&gt;/vendor/lib64/libteec.so -->
<g id="edge5" class="edge">
<title>/vendor/bin/tlogcat-&gt;/vendor/lib64/libteec.so</title>
<path fill="none" stroke="#000000" d="M1796.3983,-459.0877C1838.7627,-397.5546 1978.4958,-194.5962 2028.8099,-121.5164"/>
<polygon fill="#000000" stroke="#000000" points="2031.9724,-123.095 2034.7604,-112.8735 2026.2067,-119.1254 2031.9724,-123.095"/>
</g>
<!-- /vendor/bin/atcmdserver -->
<g id="node7" class="node">
<title>/vendor/bin/atcmdserver</title>
<ellipse fill="none" stroke="#000000" cx="1897.066" cy="-858" rx="105.3567" ry="18"/>
<text text-anchor="middle" x="1897.066" y="-853.8" font-family="Times,serif" font-size="14.00" fill="#000000">/vendor/bin/atcmdserver</text>
</g>
<!-- /vendor/bin/atcmdserver&#45;&gt;/vendor/lib64/libteec.so -->
<g id="edge6" class="edge">
<title>/vendor/bin/atcmdserver-&gt;/vendor/lib64/libteec.so</title>
<path fill="none" stroke="#000000" d="M1895.2727,-839.8631C1890.1171,-783.0021 1877.3833,-603.4172 1906.066,-459 1932.203,-327.4005 2002.2424,-181.6473 2032.6481,-122.3385"/>
<polygon fill="#000000" stroke="#000000" points="2035.861,-123.745 2037.3433,-113.2544 2029.6424,-120.5309 2035.861,-123.745"/>
</g>
<!-- /vendor/lib64/libstorekeybox.so -->
<g id="node11" class="node">
<title>/vendor/lib64/libstorekeybox.so</title>
<ellipse fill="none" stroke="#000000" cx="2047.066" cy="-477" rx="134.2963" ry="18"/>
<text text-anchor="middle" x="2047.066" y="-472.8" font-family="Times,serif" font-size="14.00" fill="#000000">/vendor/lib64/libstorekeybox.so</text>
</g>
<!-- /vendor/bin/atcmdserver&#45;&gt;/vendor/lib64/libstorekeybox.so -->
<g id="edge28" class="edge">
<title>/vendor/bin/atcmdserver-&gt;/vendor/lib64/libstorekeybox.so</title>
<path fill="none" stroke="#000000" d="M1904.1999,-839.8799C1928.3332,-778.5812 2007.0277,-578.6972 2036.123,-504.7953"/>
<polygon fill="#000000" stroke="#000000" points="2039.4817,-505.8181 2039.8884,-495.231 2032.9683,-503.2537 2039.4817,-505.8181"/>
</g>
<!-- /vendor/bin/aptouch_daemon -->
<g id="node8" class="node">
<title>/vendor/bin/aptouch_daemon</title>
<ellipse fill="none" stroke="#000000" cx="2349.066" cy="-477" rx="124.4283" ry="18"/>
<text text-anchor="middle" x="2349.066" y="-472.8" font-family="Times,serif" font-size="14.00" fill="#000000">/vendor/bin/aptouch_daemon</text>
</g>
<!-- /vendor/bin/aptouch_daemon&#45;&gt;/vendor/lib64/libteec.so -->
<g id="edge7" class="edge">
<title>/vendor/bin/aptouch_daemon-&gt;/vendor/lib64/libteec.so</title>
<path fill="none" stroke="#000000" d="M2334.9049,-459.0877C2286.1592,-397.4292 2125.1503,-193.7689 2067.6775,-121.0715"/>
<polygon fill="#000000" stroke="#000000" points="2070.1438,-118.5475 2061.1964,-112.8735 2064.6525,-122.8888 2070.1438,-118.5475"/>
</g>
<!-- /vendor/lib64/libFaceDetectCA.so -->
<g id="node9" class="node">
<title>/vendor/lib64/libFaceDetectCA.so</title>
<ellipse fill="none" stroke="#000000" cx="2661.066" cy="-477" rx="143.5775" ry="18"/>
<text text-anchor="middle" x="2661.066" y="-472.8" font-family="Times,serif" font-size="14.00" fill="#000000">/vendor/lib64/libFaceDetectCA.so</text>
</g>
<!-- /vendor/lib64/libFaceDetectCA.so&#45;&gt;/vendor/lib64/libteec.so -->
<g id="edge8" class="edge">
<title>/vendor/lib64/libFaceDetectCA.so-&gt;/vendor/lib64/libteec.so</title>
<path fill="none" stroke="#000000" d="M2632.6829,-459.3415C2532.5637,-397.0523 2195.898,-187.5958 2083.7557,-117.8265"/>
<polygon fill="#000000" stroke="#000000" points="2085.4878,-114.7821 2075.148,-112.4712 2081.7899,-120.7257 2085.4878,-114.7821"/>
</g>
<!-- /vendor/lib64/lib_fpc_tac_shared.so -->
<g id="node10" class="node">
<title>/vendor/lib64/lib_fpc_tac_shared.so</title>
<ellipse fill="none" stroke="#000000" cx="2969.066" cy="-477" rx="150.4464" ry="18"/>
<text text-anchor="middle" x="2969.066" y="-472.8" font-family="Times,serif" font-size="14.00" fill="#000000">/vendor/lib64/lib_fpc_tac_shared.so</text>
</g>
<!-- /vendor/lib64/lib_fpc_tac_shared.so&#45;&gt;/vendor/lib64/libteec.so -->
<g id="edge9" class="edge">
<title>/vendor/lib64/lib_fpc_tac_shared.so-&gt;/vendor/lib64/libteec.so</title>
<path fill="none" stroke="#000000" d="M2927.0537,-459.5936C2775.7664,-396.9127 2259.1786,-182.8818 2096.523,-115.4909"/>
<polygon fill="#000000" stroke="#000000" points="2097.8077,-112.2347 2087.2296,-111.6404 2095.1283,-118.7016 2097.8077,-112.2347"/>
</g>
<!-- /vendor/lib64/libstorekeybox.so&#45;&gt;/vendor/lib64/libteec.so -->
<g id="edge10" class="edge">
<title>/vendor/lib64/libstorekeybox.so-&gt;/vendor/lib64/libteec.so</title>
<path fill="none" stroke="#000000" d="M2047.066,-458.8323C2047.066,-397.4985 2047.066,-197.7832 2047.066,-123.3244"/>
<polygon fill="#000000" stroke="#000000" points="2050.5661,-123.2789 2047.066,-113.2789 2043.5661,-123.2789 2050.5661,-123.2789"/>
</g>
<!-- /vendor/lib64/libAntiTheftCA.so -->
<g id="node12" class="node">
<title>/vendor/lib64/libAntiTheftCA.so</title>
<ellipse fill="none" stroke="#000000" cx="780.066" cy="-477" rx="138.3831" ry="18"/>
<text text-anchor="middle" x="780.066" y="-472.8" font-family="Times,serif" font-size="14.00" fill="#000000">/vendor/lib64/libAntiTheftCA.so</text>
</g>
<!-- /vendor/lib64/libAntiTheftCA.so&#45;&gt;/vendor/lib64/libteec.so -->
<g id="edge11" class="edge">
<title>/vendor/lib64/libAntiTheftCA.so-&gt;/vendor/lib64/libteec.so</title>
<path fill="none" stroke="#000000" d="M834.9141,-460.4633C1041.0906,-398.3012 1768.9421,-178.8542 1985.7107,-113.4986"/>
<polygon fill="#000000" stroke="#000000" points="1986.7756,-116.8332 1995.3396,-110.5955 1984.7549,-110.1312 1986.7756,-116.8332"/>
</g>
<!-- /vendor/lib64/libtrustzone_key_manager.so&#45;&gt;/vendor/lib64/libteec.so -->
<g id="edge12" class="edge">
<title>/vendor/lib64/libtrustzone_key_manager.so-&gt;/vendor/lib64/libteec.so</title>
<path fill="none" stroke="#000000" d="M1277.3708,-459.3415C1409.9239,-396.5964 1857.9461,-184.5214 2002.0326,-116.3169"/>
<polygon fill="#000000" stroke="#000000" points="2003.5361,-119.4776 2011.0772,-112.0356 2000.5412,-113.1506 2003.5361,-119.4776"/>
</g>
<!-- /vendor/lib64/hw/keystore.hi6250.so -->
<g id="node14" class="node">
<title>/vendor/lib64/hw/keystore.hi6250.so</title>
<ellipse fill="none" stroke="#000000" cx="3286.066" cy="-477" rx="153.3814" ry="18"/>
<text text-anchor="middle" x="3286.066" y="-472.8" font-family="Times,serif" font-size="14.00" fill="#000000">/vendor/lib64/hw/keystore.hi6250.so</text>
</g>
<!-- /vendor/lib64/hw/keystore.hi6250.so&#45;&gt;/vendor/lib64/libteec.so -->
<g id="edge13" class="edge">
<title>/vendor/lib64/hw/keystore.hi6250.so-&gt;/vendor/lib64/libteec.so</title>
<path fill="none" stroke="#000000" d="M3231.229,-460.093C3028.1541,-397.4824 2319.7051,-179.0582 2107.5497,-113.6479"/>
<polygon fill="#000000" stroke="#000000" points="2108.4135,-110.2517 2097.8262,-110.65 2106.3511,-116.941 2108.4135,-110.2517"/>
</g>
<!-- /vendor/lib64/hw/gatekeeper.hi6250.so -->
<g id="node15" class="node">
<title>/vendor/lib64/hw/gatekeeper.hi6250.so</title>
<ellipse fill="none" stroke="#000000" cx="3615.066" cy="-477" rx="162.0906" ry="18"/>
<text text-anchor="middle" x="3615.066" y="-472.8" font-family="Times,serif" font-size="14.00" fill="#000000">/vendor/lib64/hw/gatekeeper.hi6250.so</text>
</g>
<!-- /vendor/lib64/hw/gatekeeper.hi6250.so&#45;&gt;/vendor/lib64/libteec.so -->
<g id="edge14" class="edge">
<title>/vendor/lib64/hw/gatekeeper.hi6250.so-&gt;/vendor/lib64/libteec.so</title>
<path fill="none" stroke="#000000" d="M3547.691,-460.5859C3291.3092,-398.1256 2377.8851,-175.595 2117.0682,-112.0541"/>
<polygon fill="#000000" stroke="#000000" points="2117.8778,-108.6491 2107.3335,-109.6825 2116.2209,-115.4501 2117.8778,-108.6491"/>
</g>
<!-- /vendor/lib64/libface_recognize_manager.so -->
<g id="node16" class="node">
<title>/vendor/lib64/libface_recognize_manager.so</title>
<ellipse fill="none" stroke="#000000" cx="2488.066" cy="-858" rx="183.4129" ry="18"/>
<text text-anchor="middle" x="2488.066" y="-853.8" font-family="Times,serif" font-size="14.00" fill="#000000">/vendor/lib64/libface_recognize_manager.so</text>
</g>
<!-- /vendor/lib64/libface_recognize_manager.so&#45;&gt;/vendor/lib64/libteec.so -->
<g id="edge15" class="edge">
<title>/vendor/lib64/libface_recognize_manager.so-&gt;/vendor/lib64/libteec.so</title>
<path fill="none" stroke="#000000" d="M2492.7525,-839.6955C2506.8122,-780.8291 2543.861,-592.4593 2480.066,-459 2396.7375,-284.6768 2185.7445,-163.3069 2092.5312,-116.4595"/>
<polygon fill="#000000" stroke="#000000" points="2093.8667,-113.2148 2083.3541,-111.8974 2090.7506,-119.483 2093.8667,-113.2148"/>
</g>
<!-- /vendor/lib64/libface_recognize_manager.so&#45;&gt;/vendor/lib64/libFaceDetectCA.so -->
<g id="edge26" class="edge">
<title>/vendor/lib64/libface_recognize_manager.so-&gt;/vendor/lib64/libFaceDetectCA.so</title>
<path fill="none" stroke="#000000" d="M2496.2937,-839.8799C2524.1844,-778.4559 2615.26,-577.8791 2648.6502,-504.3435"/>
<polygon fill="#000000" stroke="#000000" points="2651.8402,-505.7834 2652.7878,-495.231 2645.4665,-502.8893 2651.8402,-505.7834"/>
</g>
<!-- /data/local/tmp/atcmdserver -->
<g id="node17" class="node">
<title>/data/local/tmp/atcmdserver</title>
<ellipse fill="none" stroke="#000000" cx="2160.066" cy="-858" rx="118.6703" ry="18"/>
<text text-anchor="middle" x="2160.066" y="-853.8" font-family="Times,serif" font-size="14.00" fill="#000000">/data/local/tmp/atcmdserver</text>
</g>
<!-- /data/local/tmp/atcmdserver&#45;&gt;/vendor/lib64/libteec.so -->
<g id="edge16" class="edge">
<title>/data/local/tmp/atcmdserver-&gt;/vendor/lib64/libteec.so</title>
<path fill="none" stroke="#000000" d="M2164.565,-839.918C2177.987,-783.2173 2215.178,-604.0505 2188.066,-459 2163.4146,-327.1141 2092.563,-181.5175 2061.7128,-122.2944"/>
<polygon fill="#000000" stroke="#000000" points="2064.6967,-120.4486 2056.9473,-113.2238 2058.4999,-123.7043 2064.6967,-120.4486"/>
</g>
<!-- /data/local/tmp/atcmdserver&#45;&gt;/vendor/lib64/libstorekeybox.so -->
<g id="edge29" class="edge">
<title>/data/local/tmp/atcmdserver-&gt;/vendor/lib64/libstorekeybox.so</title>
<path fill="none" stroke="#000000" d="M2154.6918,-839.8799C2136.5485,-778.7066 2077.4704,-579.5141 2055.4447,-505.2502"/>
<polygon fill="#000000" stroke="#000000" points="2058.6721,-503.823 2052.4731,-495.231 2051.9611,-505.8135 2058.6721,-503.823"/>
</g>
<!-- /cust/hw/eu/app/HwCloudDrive_EU/lib/arm64/libtrustzone_storage.so -->
<g id="node18" class="node">
<title>/cust/hw/eu/app/HwCloudDrive_EU/lib/arm64/libtrustzone_storage.so</title>
<ellipse fill="none" stroke="#000000" cx="4076.066" cy="-477" rx="284.1504" ry="18"/>
<text text-anchor="middle" x="4076.066" y="-472.8" font-family="Times,serif" font-size="14.00" fill="#000000">/cust/hw/eu/app/HwCloudDrive_EU/lib/arm64/libtrustzone_storage.so</text>
</g>
<!-- /cust/hw/eu/app/HwCloudDrive_EU/lib/arm64/libtrustzone_storage.so&#45;&gt;/vendor/lib64/libteec.so -->
<g id="edge17" class="edge">
<title>/cust/hw/eu/app/HwCloudDrive_EU/lib/arm64/libtrustzone_storage.so-&gt;/vendor/lib64/libteec.so</title>
<path fill="none" stroke="#000000" d="M3985.2736,-459.9065C3645.1311,-395.8679 2449.3506,-170.7382 2127.4069,-110.1258"/>
<polygon fill="#000000" stroke="#000000" points="2127.7054,-106.6206 2117.2304,-108.2099 2126.4102,-113.4997 2127.7054,-106.6206"/>
</g>
<!-- /system/priv&#45;app/HwSystemServer/oat/arm64/HwSystemServer.vdex -->
<g id="node19" class="node">
<title>/system/priv-app/HwSystemServer/oat/arm64/HwSystemServer.vdex</title>
<ellipse fill="none" stroke="#000000" cx="1056.066" cy="-1621" rx="279.4702" ry="18"/>
<text text-anchor="middle" x="1056.066" y="-1616.8" font-family="Times,serif" font-size="14.00" fill="#000000">/system/priv-app/HwSystemServer/oat/arm64/HwSystemServer.vdex</text>
</g>
<!-- /system/priv&#45;app/HwSystemServer/oat/arm64/HwSystemServer.vdex&#45;&gt;/system/lib64/libtrustzone_storage.so -->
<g id="edge18" class="edge">
<title>/system/priv-app/HwSystemServer/oat/arm64/HwSystemServer.vdex-&gt;/system/lib64/libtrustzone_storage.so</title>
<path fill="none" stroke="#000000" d="M1013.8174,-1603.0877C865.2384,-1540.0942 367.0673,-1328.8829 205.8623,-1260.5363"/>
<polygon fill="#000000" stroke="#000000" points="206.7591,-1257.115 196.1862,-1256.4339 204.0267,-1263.5597 206.7591,-1257.115"/>
</g>
<!-- /system/priv&#45;app/HwSystemServer/oat/arm64/HwSystemServer.vdex&#45;&gt;/system/lib64/libtrustzone_signature.so -->
<g id="edge20" class="edge">
<title>/system/priv-app/HwSystemServer/oat/arm64/HwSystemServer.vdex-&gt;/system/lib64/libtrustzone_signature.so</title>
<path fill="none" stroke="#000000" d="M1067.3348,-1602.9857C1098.7944,-1551.4965 1187.2119,-1398.2997 1217.066,-1257 1245.9341,-1120.3666 1215.8019,-951.9125 1201.6054,-886.1562"/>
<polygon fill="#000000" stroke="#000000" points="1204.9702,-885.1619 1199.3955,-876.1522 1198.135,-886.6718 1204.9702,-885.1619"/>
</g>
<!-- /system/lib64/libAntiTheftService.so -->
<g id="node21" class="node">
<title>/system/lib64/libAntiTheftService.so</title>
<ellipse fill="none" stroke="#000000" cx="1056.066" cy="-1239" rx="153.9842" ry="18"/>
<text text-anchor="middle" x="1056.066" y="-1234.8" font-family="Times,serif" font-size="14.00" fill="#000000">/system/lib64/libAntiTheftService.so</text>
</g>
<!-- /system/priv&#45;app/HwSystemServer/oat/arm64/HwSystemServer.vdex&#45;&gt;/system/lib64/libAntiTheftService.so -->
<g id="edge21" class="edge">
<title>/system/priv-app/HwSystemServer/oat/arm64/HwSystemServer.vdex-&gt;/system/lib64/libAntiTheftService.so</title>
<path fill="none" stroke="#000000" d="M1056.066,-1602.8323C1056.066,-1541.4985 1056.066,-1341.7832 1056.066,-1267.3244"/>
<polygon fill="#000000" stroke="#000000" points="1059.5661,-1267.2789 1056.066,-1257.2789 1052.5661,-1267.2789 1059.5661,-1267.2789"/>
</g>
<!-- /system/framework/oat/arm64/hwServices.vdex -->
<g id="node20" class="node">
<title>/system/framework/oat/arm64/hwServices.vdex</title>
<ellipse fill="none" stroke="#000000" cx="1486.066" cy="-1239" rx="195.6039" ry="18"/>
<text text-anchor="middle" x="1486.066" y="-1234.8" font-family="Times,serif" font-size="14.00" fill="#000000">/system/framework/oat/arm64/hwServices.vdex</text>
</g>
<!-- /system/framework/oat/arm64/hwServices.vdex&#45;&gt;/system/lib64/libhwsign.so -->
<g id="edge19" class="edge">
<title>/system/framework/oat/arm64/hwServices.vdex-&gt;/system/lib64/libhwsign.so</title>
<path fill="none" stroke="#000000" d="M1486.066,-1220.8799C1486.066,-1159.7066 1486.066,-960.5141 1486.066,-886.2502"/>
<polygon fill="#000000" stroke="#000000" points="1489.5661,-886.231 1486.066,-876.231 1482.5661,-886.2311 1489.5661,-886.231"/>
</g>
<!-- /vendor/lib64/hw/vendor.huawei.hardware.huaweiantitheft@1.0&#45;impl.so -->
<g id="node22" class="node">
<title>/vendor/lib64/hw/vendor.huawei.hardware.huaweiantitheft@1.0-impl.so</title>
<ellipse fill="none" stroke="#000000" cx="727.066" cy="-858" rx="291.1024" ry="18"/>
<text text-anchor="middle" x="727.066" y="-853.8" font-family="Times,serif" font-size="14.00" fill="#000000">/vendor/lib64/hw/vendor.huawei.hardware.huaweiantitheft@1.0-impl.so</text>
</g>
<!-- /system/lib64/libAntiTheftService.so&#45;&gt;/vendor/lib64/hw/vendor.huawei.hardware.huaweiantitheft@1.0&#45;impl.so -->
<g id="edge22" class="edge">
<title>/system/lib64/libAntiTheftService.so-&gt;/vendor/lib64/hw/vendor.huawei.hardware.huaweiantitheft@1.0-impl.so</title>
<path fill="none" stroke="#000000" d="M1040.419,-1220.8799C987.0535,-1159.0798 812.0515,-956.4178 749.5236,-884.0072"/>
<polygon fill="#000000" stroke="#000000" points="751.9936,-881.5122 742.8088,-876.231 746.6955,-886.0872 751.9936,-881.5122"/>
</g>
<!-- /vendor/lib64/hw/vendor.huawei.hardware.huaweiantitheft@1.0&#45;impl.so&#45;&gt;/vendor/lib64/libAntiTheftCA.so -->
<g id="edge23" class="edge">
<title>/vendor/lib64/hw/vendor.huawei.hardware.huaweiantitheft@1.0-impl.so-&gt;/vendor/lib64/libAntiTheftCA.so</title>
<path fill="none" stroke="#000000" d="M729.5866,-839.8799C738.0963,-778.7066 765.8055,-579.5141 776.1362,-505.2502"/>
<polygon fill="#000000" stroke="#000000" points="779.6186,-505.6179 777.5299,-495.231 772.6854,-504.6534 779.6186,-505.6179"/>
</g>
<!-- /vendor/bin/hw/vendor.huawei.hardware.huaweiantitheft@1.0&#45;service -->
<g id="node23" class="node">
<title>/vendor/bin/hw/vendor.huawei.hardware.huaweiantitheft@1.0-service</title>
<ellipse fill="none" stroke="#000000" cx="606.066" cy="-1239" rx="282.3511" ry="18"/>
<text text-anchor="middle" x="606.066" y="-1234.8" font-family="Times,serif" font-size="14.00" fill="#000000">/vendor/bin/hw/vendor.huawei.hardware.huaweiantitheft@1.0-service</text>
</g>
<!-- /vendor/bin/hw/vendor.huawei.hardware.huaweiantitheft@1.0&#45;service&#45;&gt;/vendor/lib64/hw/vendor.huawei.hardware.huaweiantitheft@1.0&#45;impl.so -->
<g id="edge24" class="edge">
<title>/vendor/bin/hw/vendor.huawei.hardware.huaweiantitheft@1.0-service-&gt;/vendor/lib64/hw/vendor.huawei.hardware.huaweiantitheft@1.0-impl.so</title>
<path fill="none" stroke="#000000" d="M611.8207,-1220.8799C631.2882,-1159.5812 694.7684,-959.6972 718.2386,-885.7953"/>
<polygon fill="#000000" stroke="#000000" points="721.5849,-886.8214 721.2761,-876.231 714.9133,-884.7025 721.5849,-886.8214"/>
</g>
<!-- /odm/lib64/libMegviiUnlock.so -->
<g id="node24" class="node">
<title>/odm/lib64/libMegviiUnlock.so</title>
<ellipse fill="none" stroke="#000000" cx="2819.066" cy="-858" rx="133.7514" ry="18"/>
<text text-anchor="middle" x="2819.066" y="-853.8" font-family="Times,serif" font-size="14.00" fill="#000000">/odm/lib64/libMegviiUnlock.so</text>
</g>
<!-- /odm/lib64/libMegviiUnlock.so&#45;&gt;/vendor/lib64/libFaceDetectCA.so -->
<g id="edge25" class="edge">
<title>/odm/lib64/libMegviiUnlock.so-&gt;/vendor/lib64/libFaceDetectCA.so</title>
<path fill="none" stroke="#000000" d="M2811.5516,-839.8799C2786.1312,-778.5812 2703.2396,-578.6972 2672.5926,-504.7953"/>
<polygon fill="#000000" stroke="#000000" points="2675.6901,-503.1275 2668.6264,-495.231 2669.224,-505.809 2675.6901,-503.1275"/>
</g>
<!-- /vendor/lib64/hw/fingerprint.hi6250.so -->
<g id="node25" class="node">
<title>/vendor/lib64/hw/fingerprint.hi6250.so</title>
<ellipse fill="none" stroke="#000000" cx="3128.066" cy="-858" rx="161.5477" ry="18"/>
<text text-anchor="middle" x="3128.066" y="-853.8" font-family="Times,serif" font-size="14.00" fill="#000000">/vendor/lib64/hw/fingerprint.hi6250.so</text>
</g>
<!-- /vendor/lib64/hw/fingerprint.hi6250.so&#45;&gt;/vendor/lib64/lib_fpc_tac_shared.so -->
<g id="edge27" class="edge">
<title>/vendor/lib64/hw/fingerprint.hi6250.so-&gt;/vendor/lib64/lib_fpc_tac_shared.so</title>
<path fill="none" stroke="#000000" d="M3120.504,-839.8799C3094.9227,-778.5812 3011.5065,-578.6972 2980.6656,-504.7953"/>
<polygon fill="#000000" stroke="#000000" points="2983.7556,-503.1117 2976.6742,-495.231 2977.2956,-505.8077 2983.7556,-503.1117"/>
</g>
<!-- /vendor/lib64/hw/facerecognize.hi6250.so -->
<g id="node26" class="node">
<title>/vendor/lib64/hw/facerecognize.hi6250.so</title>
<ellipse fill="none" stroke="#000000" cx="2488.066" cy="-1239" rx="174.1668" ry="18"/>
<text text-anchor="middle" x="2488.066" y="-1234.8" font-family="Times,serif" font-size="14.00" fill="#000000">/vendor/lib64/hw/facerecognize.hi6250.so</text>
</g>
<!-- /vendor/lib64/hw/facerecognize.hi6250.so&#45;&gt;/vendor/lib64/libface_recognize_manager.so -->
<g id="edge32" class="edge">
<title>/vendor/lib64/hw/facerecognize.hi6250.so-&gt;/vendor/lib64/libface_recognize_manager.so</title>
<path fill="none" stroke="#000000" d="M2488.066,-1220.8799C2488.066,-1159.7066 2488.066,-960.5141 2488.066,-886.2502"/>
<polygon fill="#000000" stroke="#000000" points="2491.5661,-886.231 2488.066,-876.231 2484.5661,-886.2311 2491.5661,-886.231"/>
</g>
</g>
</svg>